# xmcd CD database file
#
# Track frame offsets:
#	150
#	43165
#	62445
#	92170
#	124157
#	150770
#	179830
#	212650
#	224915
#	257260
#
# Disc length: 3702 seconds
#
# Revision: 0
# Processed by: cddbd v1.5PL3 Copyright (c) Steve Scherf et al.
# Submitted via: CDex 1.51
#
DISCID=8e0e740a
DTITLE=早坂紗知　Sachi Hayasaka and Stir Up! - Straight to the Core
DYEAR=1990
DGENRE=Jazz
TTITLE0=MOther of the Veil
TTITLE1=In All Languages
TTITLE2=SKA
TTITLE3=Yellow Monk
TTITLE4=Lonely Woman
TTITLE5=Twinkle Twinkle
TTITLE6=Lady's  Blues
TTITLE7=Free Beauty
TTITLE8=For Carrie
TTITLE9=Encounter
EXTD=YEAR: 1990
EXTT0=
EXTT1=
EXTT2=
EXTT3=
EXTT4=
EXTT5=
EXTT6=
EXTT7=
EXTT8=
EXTT9=
PLAYORDER=
